+8_ID_stride4.mot
nRows=13
nColumns=38

name +8_ID_stride4.mot
datacolumns 38
datarows 13
range 1.7950000000 1.8550000000
endheader
time	pelvis_tilt_moment	pelvis_list_moment	pelvis_rotation_moment	pelvis_tx_force	pelvis_ty_force	pelvis_tz_force	hip_flexion_r_moment	hip_adduction_r_moment	hip_rotation_r_moment	knee_angle_r_moment	ankle_angle_r_moment	subtalar_angle_r_moment	mtp_angle_r_moment	hip_flexion_l_moment	hip_adduction_l_moment	hip_rotation_l_moment	knee_angle_l_moment	ankle_angle_l_moment	subtalar_angle_l_moment	mtp_angle_l_moment	lumbar_extension_moment	lumbar_bending_moment	lumbar_rotation_moment	arm_flex_r_moment	arm_add_r_moment	arm_rot_r_moment	elbow_flex_r_moment	pro_sup_r_moment	wrist_flex_r_moment	wrist_dev_r_moment	arm_flex_l_moment	arm_add_l_moment	arm_rot_l_moment	elbow_flex_l_moment	pro_sup_l_moment	wrist_flex_l_moment	wrist_dev_l_moment
        1.7950000000	       -0.5363252696	        3.2897010705	       44.3742639671	      -45.5000083216	      -38.1651219210	      -69.2235675246	       -9.9113013092	       -3.2367148593	        0.6106567428	        1.0973678417	        2.5830401321	       -0.5271319607	        0.1414289355	        5.0472535925	      -57.4573737566	       -9.2023955862	       12.4004926025	     -181.7713203674	       22.2398972481	       -0.0337817580	       26.6998153139	        3.4366896152	       52.0650616480	        8.9275399405	        6.8796141010	        5.5429229017	        5.6495455857	        0.0592973809	        0.7048712643	       -0.3471882187	       -1.2210296955	       -3.3738020250	       -4.6497002600	        5.1428824548	       -0.2534674769	       -0.4234390233	       -0.5590059065	
        1.8000000000	        2.7552834141	      -19.4559198521	       38.7858726783	      -46.1156094847	      -48.5965260196	      -70.3135133998	      -11.5195994336	       -7.7158448480	        1.9168628854	        0.4838502285	        2.7224335364	       -0.6663155326	        0.1459806915	       -3.4876917813	      -52.9460589389	       -8.4205492140	       -0.6516121634	     -172.4528132611	       22.0930693928	       -0.0402903406	       14.6846677201	        0.8256293276	       52.5754167197	        8.9126378267	        6.8238125762	        5.5595817200	        5.0710569320	        0.0718083718	        0.6944167578	       -0.2919516440	       -1.5155248092	       -3.7737623846	       -4.7936538100	        4.4736785776	       -0.2476931832	       -0.4516053110	       -0.5007489555	
        1.8050000000	        8.9136943860	      -39.9298297868	       33.6779754103	      -42.2653563040	      -53.3089637037	      -63.9325153317	      -13.7660313435	      -12.7484817632	        3.3116415803	       -0.3406365346	        2.8562458990	       -0.8180154012	        0.1508992369	      -10.9653454636	      -46.9778047069	       -9.0236002242	      -11.4244428139	     -161.2948784535	       20.9414828720	       -0.0464491116	        3.9759049576	       -1.7730966663	       51.0715614361	        8.4948135290	        6.5100238588	        5.3597089000	        4.4682274736	        0.0793026623	        0.6600772365	       -0.2388594007	       -1.7617072205	       -3.9534731522	       -4.7628121841	        3.7994119631	       -0.2342493690	       -0.4596271898	       -0.4370559921	
        1.8100000000	       16.5744685580	      -48.8555091867	       28.3993477797	      -39.7347126166	      -52.2163151128	      -59.1371961811	      -16.6723709886	      -17.4283262901	        4.5500494881	       -1.3558558071	        2.9736660060	       -0.9673433383	        0.1557274536	       -8.6764506525	      -40.2657943421	       -9.1280304427	      -15.9521979729	     -148.0694955724	       19.9662659391	       -0.0517504231	       -4.4248574192	       -4.6821039443	       48.1301750498	        7.8385320305	        6.0611383430	        5.0344508701	        3.8760410114	        0.0825144592	        0.6130207371	       -0.1905954627	       -1.9903076641	       -3.9242069417	       -4.5363050606	        3.1517292171	       -0.2161003045	       -0.4466316850	       -0.3722764304	
        1.8150000000	       23.7967880349	      -43.3837064417	       21.7949944387	      -41.2159589018	      -46.7727823682	      -59.0136468616	      -20.0017126073	      -21.0088954974	        5.4480260020	       -2.4780644635	        3.0696383843	       -1.1017480325	        0.1600785293	        2.9187595136	      -34.1915179160	       -7.3724634992	      -13.6453611692	     -132.9315578836	       19.4355899866	       -0.0550465731	       -9.9467836364	       -7.9521185602	       44.3408398363	        7.0128222754	        5.5083984974	        4.6242761856	        3.3240810180	        0.0820397841	        0.5583429991	       -0.1491377650	       -2.2281361245	       -3.7547583012	       -4.1867488640	        2.5527434267	       -0.1949950858	       -0.4203024635	       -0.3101188602	
        1.8200000000	       26.1673319864	      -29.7625804987	       14.2829850418	      -45.5313122577	      -36.8618580563	      -58.4739440437	      -23.4696201699	      -21.7993012432	        5.8191157061	       -3.6000067805	        3.1376779727	       -1.2111334019	        0.1633552016	       20.8323735871	      -30.1743709797	       -3.4052597096	       -7.8941050118	     -116.0473444639	       18.6617713965	       -0.0547150642	      -11.6692707611	      -11.2772183662	       40.2398313886	        6.1108100623	        4.8615982230	        4.1564424520	        2.8257795478	        0.0799644190	        0.5001401236	       -0.1151591430	       -2.4922676288	       -3.4218284403	       -3.7478848180	        2.0053307478	       -0.1722987016	       -0.3839945070	       -0.2523490449	
        1.8250000000	       26.7356263004	      -13.0986100895	        7.4388316563	      -49.7818282603	      -27.1867865893	      -55.5904329637	      -26.8617132015	      -21.9010463903	        5.9487608283	       -4.6682303982	        3.1808585817	       -1.2967653157	        0.1651822133	       37.2324907496	      -27.4704599229	        1.2345217273	       -1.9672243937	      -98.3583031130	       17.2776203587	       -0.0508847892	      -12.1249036436	      -14.2573950923	       36.1846567761	        5.1981526569	        4.1288725843	        3.6497314362	        2.3662523420	        0.0760518864	        0.4405577675	       -0.0862702810	       -2.7880850821	       -2.9500990667	       -3.2487424115	        1.4906633087	       -0.1487543992	       -0.3419867700	       -0.1979277908	
        1.8300000000	       22.3368768513	       -2.3631564453	        3.5511632438	      -48.7261326181	      -24.0170303590	      -44.6428737459	      -29.8899545144	      -19.4785215607	        5.7311308251	       -5.6172333939	        3.1970214053	       -1.3557955704	        0.1651654145	       45.4476845401	      -25.4782570760	        4.2421441580	       -0.3237174890	      -81.6205820169	       14.8831293427	       -0.0405196574	      -10.5541450343	      -16.3888189258	       32.5450424236	        4.3429521017	        3.2956103981	        3.1136148563	        1.9271809730	        0.0718759336	        0.3809004522	       -0.0606016061	       -3.1252393126	       -2.3492442052	       -2.7131428782	        0.9837099796	       -0.1247278662	       -0.2982197621	       -0.1452492778	
        1.8350000000	       16.0897828886	        1.6131459985	        4.4381102048	      -40.2505030795	      -34.1533092380	      -28.1202718506	      -32.6349712130	      -15.3815119923	        5.3530325600	       -6.5442475734	        3.1830727941	       -1.3877108512	        0.1635070237	       44.5297331072	      -21.8223367461	        4.1450581199	       -2.9258637464	      -68.2124892446	       12.5040646117	       -0.0231636984	       -8.5027215035	      -16.7827568642	       29.3784187993	        3.5449587153	        2.3646198914	        2.5525253565	        1.4629267379	        0.0680901826	        0.3205132243	       -0.0334387988	       -3.5048133904	       -1.6444236747	       -2.1550737233	        0.4440015415	       -0.0998211867	       -0.2548442370	       -0.0903838507	
        1.8400000000	       10.0574405992	        5.3494615192	        7.9695072917	      -22.4649531751	      -63.3832266985	      -10.8736399028	      -35.3395813968	       -9.8914634500	        4.8870427845	       -7.6327555961	        3.1380801164	       -1.3888748720	        0.1596074637	       42.5513826278	      -15.4591004804	        2.9546455162	       -7.5544705489	      -58.0807974916	       10.9984991661	        0.0018078191	       -6.9119042182	      -16.1495502149	       26.5532687930	        2.7656113619	        1.3601067717	        1.9755228113	        0.9363273877	        0.0652784116	        0.2587411464	       -0.0010907207	       -3.9239554115	       -0.8809466632	       -1.5882065235	       -0.1551181846	       -0.0736323233	       -0.2131760669	       -0.0304109790	
        1.8450000000	        5.1183552595	       12.2179420976	       13.0314417824	        0.4786548977	     -112.7148647571	        3.1441299092	      -38.4296962419	       -3.2885331962	        4.4107851027	       -9.1672741747	        3.0530073872	       -1.3719352030	        0.1538414626	       43.0670271949	       -6.6693398718	        2.2314510406	       -8.9445464943	      -49.2950767454	       10.0836004173	        0.0346073132	       -6.5668874759	      -13.9212808023	       23.8135172782	        1.9459238626	        0.3362971288	        1.4005850431	        0.3205209938	        0.0642594738	        0.1954133638	        0.0392661909	       -4.3684958704	       -0.1309656523	       -1.0306534023	       -0.8237939610	       -0.0459864584	       -0.1739964670	        0.0362461384	
        1.8500000000	        1.0598343578	       24.9994666229	       17.3294750492	       23.5693675304	     -176.8733380410	       13.9151396356	      -42.1406471929	        4.0810991035	        3.9753538279	      -11.4245798662	        2.9310107926	       -1.3234059552	        0.1466859946	       50.6639538744	        3.1305447548	        2.4044106893	       -7.1482214352	      -40.4592934479	        9.3694844952	        0.0744629760	       -7.3055105788	      -10.6639772166	       20.9611937493	        1.0482535506	       -0.6571857523	        0.8427409176	       -0.3850708707	        0.0640859391	        0.1310281799	        0.0882070683	       -4.8180055158	        0.5560697258	       -0.4945720809	       -1.5489948500	       -0.0171725942	       -0.1372283065	        0.1088902568	
        1.8550000000	       -3.3873719599	       37.3195151418	       19.4892355871	       39.3457038205	     -241.0998556943	       24.3100586404	      -45.7197897418	       11.5462495801	        3.6829291488	      -14.3980475667	        2.8139478764	       -1.2643394451	        0.1399383234	       59.1756739467	       11.2983275279	        3.6595410572	       -3.1987963224	      -30.4742088849	        7.9840395970	        0.1193170543	       -9.2328106895	       -7.0720167465	       17.7126313542	        0.0417848488	       -1.5301232681	        0.3326076828	       -1.1440999491	        0.0648070650	        0.0675213030	        0.1428898652	       -5.2253538995	        1.0991056447	       -0.0045260356	       -2.2797148892	        0.0116881941	       -0.1028432610	        0.1834558853	
